# Blender v3.1.2 OBJ File: ''
# www.blender.org
mtllib floor.mtl
o Cube.002
v 5.922000 0.000900 5.922000
v -5.922000 0.000900 5.922000
v -5.922000 0.000900 -5.922000
v 5.922000 0.000900 -5.922000
v 5.922000 -0.000900 -5.922000
v -5.922000 -0.000900 -5.922000
v -5.922000 -0.000900 5.922000
v 5.922000 -0.000900 5.922000
vt 0.625000 0.750000
vt 0.875000 0.500000
vt 0.625000 0.500000
vt 0.375000 1.000000
vt 0.375000 0.750000
vt 0.375000 0.250000
vt 0.625000 0.000000
vt 0.375000 0.000000
vt 0.125000 0.750000
vt 0.375000 0.500000
vt 0.125000 0.500000
vt 0.625000 0.250000
vt 0.875000 0.750000
vt 0.625000 1.000000
vn 0.5773 0.5774 -0.5774
vn -0.5773 0.5774 0.5774
vn 0.5774 0.5774 0.5773
vn -0.5774 -0.5773 -0.5774
vn 0.5774 0.5773 -0.5774
vn 0.5773 -0.5774 -0.5774
vn -0.5774 -0.5773 0.5774
vn -0.5774 0.5773 -0.5774
vn -0.5774 -0.5774 -0.5773
vn -0.5773 -0.5774 -0.5774
vn 0.5773 -0.5774 0.5774
vn -0.5774 -0.5774 0.5773
vn 0.5774 -0.5773 -0.5774
vn 0.5774 0.5773 0.5774
vn 0.5774 -0.5774 0.5773
vn 0.5774 -0.5773 0.5774
vn -0.5774 0.5773 0.5774
vn -0.5773 -0.5774 0.5774
vn -0.5774 0.5774 -0.5773
vn -0.5773 0.5774 -0.5774
vn -0.5774 0.5774 0.5773
vn 0.5774 -0.5774 -0.5773
vn 0.5774 0.5774 -0.5773
vn 0.5773 0.5774 0.5774
usemtl Material.002
s 1
f 4/1/1 2/2/2 1/3/3
f 6/4/4 4/1/5 5/5/6
f 7/6/7 3/7/8 6/8/9
f 6/9/10 8/10/11 7/11/12
f 5/5/13 1/3/14 8/10/15
f 8/10/16 2/12/17 7/6/18
f 4/1/1 3/13/19 2/2/2
f 6/4/4 3/14/20 4/1/5
f 7/6/7 2/12/21 3/7/8
f 6/9/10 5/5/22 8/10/11
f 5/5/13 4/1/23 1/3/14
f 8/10/16 1/3/24 2/12/17
